<mxfile host="Electron" agent="Mozilla/5.0 (Windows NT 10.0; Win64; x64) AppleWebKit/537.36 (KHTML, like Gecko) draw.io/24.7.17 Chrome/128.0.6613.36 Electron/32.0.1 Safari/537.36" version="24.7.17">
  <diagram id="C5RBs43oDa-KdzZeNtuy" name="Page-1">
    <mxGraphModel dx="1947" dy="524" grid="1" gridSize="10" guides="1" tooltips="1" connect="1" arrows="1" fold="1" page="1" pageScale="1" pageWidth="827" pageHeight="1169" math="0" shadow="0">
      <root>
        <mxCell id="WIyWlLk6GJQsqaUBKTNV-0" />
        <mxCell id="WIyWlLk6GJQsqaUBKTNV-1" parent="WIyWlLk6GJQsqaUBKTNV-0" />
        <mxCell id="IuZ-A-UzDENfxD2tnn4W-0" value="" style="strokeWidth=2;html=1;shape=mxgraph.flowchart.start_2;whiteSpace=wrap;" parent="WIyWlLk6GJQsqaUBKTNV-1" vertex="1">
          <mxGeometry x="200" y="10" width="40" height="40" as="geometry" />
        </mxCell>
        <mxCell id="IuZ-A-UzDENfxD2tnn4W-3" value="" style="edgeStyle=orthogonalEdgeStyle;rounded=0;orthogonalLoop=1;jettySize=auto;html=1;" parent="WIyWlLk6GJQsqaUBKTNV-1" source="IuZ-A-UzDENfxD2tnn4W-1" target="IuZ-A-UzDENfxD2tnn4W-2" edge="1">
          <mxGeometry relative="1" as="geometry" />
        </mxCell>
        <mxCell id="IuZ-A-UzDENfxD2tnn4W-1" value="Địa chỉ chi nhánh" style="rounded=1;whiteSpace=wrap;html=1;" parent="WIyWlLk6GJQsqaUBKTNV-1" vertex="1">
          <mxGeometry x="160" y="100" width="120" height="40" as="geometry" />
        </mxCell>
        <mxCell id="IuZ-A-UzDENfxD2tnn4W-5" value="" style="edgeStyle=orthogonalEdgeStyle;rounded=0;orthogonalLoop=1;jettySize=auto;html=1;" parent="WIyWlLk6GJQsqaUBKTNV-1" source="IuZ-A-UzDENfxD2tnn4W-2" target="IuZ-A-UzDENfxD2tnn4W-4" edge="1">
          <mxGeometry relative="1" as="geometry" />
        </mxCell>
        <mxCell id="IuZ-A-UzDENfxD2tnn4W-2" value="Thêm / Cập nhật&amp;nbsp;" style="rounded=1;whiteSpace=wrap;html=1;" parent="WIyWlLk6GJQsqaUBKTNV-1" vertex="1">
          <mxGeometry x="140" y="180" width="160" height="40" as="geometry" />
        </mxCell>
        <mxCell id="SdE38SQNqDCT2LTIX-3w-1" value="" style="edgeStyle=orthogonalEdgeStyle;rounded=0;orthogonalLoop=1;jettySize=auto;html=1;" edge="1" parent="WIyWlLk6GJQsqaUBKTNV-1" source="IuZ-A-UzDENfxD2tnn4W-4" target="SdE38SQNqDCT2LTIX-3w-0">
          <mxGeometry relative="1" as="geometry" />
        </mxCell>
        <mxCell id="IuZ-A-UzDENfxD2tnn4W-4" value="Nhập dữ liệu" style="rounded=1;whiteSpace=wrap;html=1;" parent="WIyWlLk6GJQsqaUBKTNV-1" vertex="1">
          <mxGeometry x="160" y="260" width="120" height="40" as="geometry" />
        </mxCell>
        <mxCell id="IuZ-A-UzDENfxD2tnn4W-39" style="edgeStyle=orthogonalEdgeStyle;rounded=0;orthogonalLoop=1;jettySize=auto;html=1;entryX=0.5;entryY=0;entryDx=0;entryDy=0;" parent="WIyWlLk6GJQsqaUBKTNV-1" source="IuZ-A-UzDENfxD2tnn4W-6" target="IuZ-A-UzDENfxD2tnn4W-8" edge="1">
          <mxGeometry relative="1" as="geometry" />
        </mxCell>
        <mxCell id="IuZ-A-UzDENfxD2tnn4W-6" value="Lưu dữ liệu&amp;nbsp;" style="rounded=1;whiteSpace=wrap;html=1;" parent="WIyWlLk6GJQsqaUBKTNV-1" vertex="1">
          <mxGeometry x="315" y="420" width="120" height="40" as="geometry" />
        </mxCell>
        <mxCell id="IuZ-A-UzDENfxD2tnn4W-11" style="edgeStyle=orthogonalEdgeStyle;rounded=0;orthogonalLoop=1;jettySize=auto;html=1;" parent="WIyWlLk6GJQsqaUBKTNV-1" source="IuZ-A-UzDENfxD2tnn4W-8" target="IuZ-A-UzDENfxD2tnn4W-9" edge="1">
          <mxGeometry relative="1" as="geometry" />
        </mxCell>
        <mxCell id="IuZ-A-UzDENfxD2tnn4W-12" value="Thất bại" style="edgeLabel;html=1;align=center;verticalAlign=middle;resizable=0;points=[];" parent="IuZ-A-UzDENfxD2tnn4W-11" vertex="1" connectable="0">
          <mxGeometry x="-0.4581" y="1" relative="1" as="geometry">
            <mxPoint x="-8" y="-11" as="offset" />
          </mxGeometry>
        </mxCell>
        <mxCell id="IuZ-A-UzDENfxD2tnn4W-17" style="edgeStyle=orthogonalEdgeStyle;rounded=0;orthogonalLoop=1;jettySize=auto;html=1;entryX=0.5;entryY=0;entryDx=0;entryDy=0;" parent="WIyWlLk6GJQsqaUBKTNV-1" source="IuZ-A-UzDENfxD2tnn4W-8" target="IuZ-A-UzDENfxD2tnn4W-16" edge="1">
          <mxGeometry relative="1" as="geometry" />
        </mxCell>
        <mxCell id="IuZ-A-UzDENfxD2tnn4W-18" value="Thành công" style="edgeLabel;html=1;align=center;verticalAlign=middle;resizable=0;points=[];" parent="IuZ-A-UzDENfxD2tnn4W-17" vertex="1" connectable="0">
          <mxGeometry x="-0.3939" y="-2" relative="1" as="geometry">
            <mxPoint x="-10" y="-12" as="offset" />
          </mxGeometry>
        </mxCell>
        <mxCell id="IuZ-A-UzDENfxD2tnn4W-8" value="" style="rhombus;whiteSpace=wrap;html=1;" parent="WIyWlLk6GJQsqaUBKTNV-1" vertex="1">
          <mxGeometry x="335" y="480" width="80" height="80" as="geometry" />
        </mxCell>
        <mxCell id="IuZ-A-UzDENfxD2tnn4W-9" value="Thông báo lỗi" style="rounded=1;whiteSpace=wrap;html=1;" parent="WIyWlLk6GJQsqaUBKTNV-1" vertex="1">
          <mxGeometry x="185" y="565" width="120" height="40" as="geometry" />
        </mxCell>
        <mxCell id="IuZ-A-UzDENfxD2tnn4W-14" value="" style="strokeWidth=2;html=1;shape=mxgraph.flowchart.start_2;whiteSpace=wrap;" parent="WIyWlLk6GJQsqaUBKTNV-1" vertex="1">
          <mxGeometry x="355" y="650" width="40" height="40" as="geometry" />
        </mxCell>
        <mxCell id="IuZ-A-UzDENfxD2tnn4W-15" style="edgeStyle=orthogonalEdgeStyle;rounded=0;orthogonalLoop=1;jettySize=auto;html=1;entryX=0;entryY=0.5;entryDx=0;entryDy=0;entryPerimeter=0;" parent="WIyWlLk6GJQsqaUBKTNV-1" source="IuZ-A-UzDENfxD2tnn4W-9" target="IuZ-A-UzDENfxD2tnn4W-14" edge="1">
          <mxGeometry relative="1" as="geometry">
            <Array as="points">
              <mxPoint x="245" y="670" />
            </Array>
          </mxGeometry>
        </mxCell>
        <mxCell id="IuZ-A-UzDENfxD2tnn4W-20" style="edgeStyle=orthogonalEdgeStyle;rounded=0;orthogonalLoop=1;jettySize=auto;html=1;" parent="WIyWlLk6GJQsqaUBKTNV-1" source="IuZ-A-UzDENfxD2tnn4W-16" target="IuZ-A-UzDENfxD2tnn4W-19" edge="1">
          <mxGeometry relative="1" as="geometry" />
        </mxCell>
        <mxCell id="IuZ-A-UzDENfxD2tnn4W-16" value="Thông báo thành công" style="rounded=1;whiteSpace=wrap;html=1;" parent="WIyWlLk6GJQsqaUBKTNV-1" vertex="1">
          <mxGeometry x="525" y="510" width="120" height="40" as="geometry" />
        </mxCell>
        <mxCell id="IuZ-A-UzDENfxD2tnn4W-19" value="Lấy dữ liệu mới" style="rounded=1;whiteSpace=wrap;html=1;" parent="WIyWlLk6GJQsqaUBKTNV-1" vertex="1">
          <mxGeometry x="485" y="605" width="120" height="40" as="geometry" />
        </mxCell>
        <mxCell id="IuZ-A-UzDENfxD2tnn4W-21" style="edgeStyle=orthogonalEdgeStyle;rounded=0;orthogonalLoop=1;jettySize=auto;html=1;entryX=1;entryY=0.5;entryDx=0;entryDy=0;entryPerimeter=0;" parent="WIyWlLk6GJQsqaUBKTNV-1" source="IuZ-A-UzDENfxD2tnn4W-19" target="IuZ-A-UzDENfxD2tnn4W-14" edge="1">
          <mxGeometry relative="1" as="geometry" />
        </mxCell>
        <mxCell id="SdE38SQNqDCT2LTIX-3w-2" style="edgeStyle=orthogonalEdgeStyle;rounded=0;orthogonalLoop=1;jettySize=auto;html=1;entryX=0.5;entryY=0;entryDx=0;entryDy=0;" edge="1" parent="WIyWlLk6GJQsqaUBKTNV-1" source="SdE38SQNqDCT2LTIX-3w-0" target="IuZ-A-UzDENfxD2tnn4W-6">
          <mxGeometry relative="1" as="geometry" />
        </mxCell>
        <mxCell id="SdE38SQNqDCT2LTIX-3w-5" value="Được" style="edgeLabel;html=1;align=center;verticalAlign=middle;resizable=0;points=[];" vertex="1" connectable="0" parent="SdE38SQNqDCT2LTIX-3w-2">
          <mxGeometry x="-0.2229" y="-2" relative="1" as="geometry">
            <mxPoint x="-23" y="-17" as="offset" />
          </mxGeometry>
        </mxCell>
        <mxCell id="SdE38SQNqDCT2LTIX-3w-7" value="" style="edgeStyle=orthogonalEdgeStyle;rounded=0;orthogonalLoop=1;jettySize=auto;html=1;" edge="1" parent="WIyWlLk6GJQsqaUBKTNV-1" source="SdE38SQNqDCT2LTIX-3w-0" target="SdE38SQNqDCT2LTIX-3w-6">
          <mxGeometry relative="1" as="geometry" />
        </mxCell>
        <mxCell id="SdE38SQNqDCT2LTIX-3w-8" value="Sai" style="edgeLabel;html=1;align=center;verticalAlign=middle;resizable=0;points=[];" vertex="1" connectable="0" parent="SdE38SQNqDCT2LTIX-3w-7">
          <mxGeometry x="-0.1273" relative="1" as="geometry">
            <mxPoint x="2" y="-15" as="offset" />
          </mxGeometry>
        </mxCell>
        <mxCell id="SdE38SQNqDCT2LTIX-3w-0" value="" style="rhombus;whiteSpace=wrap;html=1;" vertex="1" parent="WIyWlLk6GJQsqaUBKTNV-1">
          <mxGeometry x="185" y="330" width="70" height="70" as="geometry" />
        </mxCell>
        <mxCell id="SdE38SQNqDCT2LTIX-3w-9" style="edgeStyle=orthogonalEdgeStyle;rounded=0;orthogonalLoop=1;jettySize=auto;html=1;entryX=0;entryY=0.5;entryDx=0;entryDy=0;exitX=0.5;exitY=0;exitDx=0;exitDy=0;" edge="1" parent="WIyWlLk6GJQsqaUBKTNV-1" source="SdE38SQNqDCT2LTIX-3w-6" target="IuZ-A-UzDENfxD2tnn4W-4">
          <mxGeometry relative="1" as="geometry" />
        </mxCell>
        <mxCell id="SdE38SQNqDCT2LTIX-3w-6" value="Thông báo lỗi" style="rounded=1;whiteSpace=wrap;html=1;" vertex="1" parent="WIyWlLk6GJQsqaUBKTNV-1">
          <mxGeometry x="-20" y="345" width="120" height="40" as="geometry" />
        </mxCell>
      </root>
    </mxGraphModel>
  </diagram>
</mxfile>
